HIERARCHY
ROOT reference
{
  OFFSET 90.5021 0 -1.75576
  CHANNELS 6 Xposition Yposition Zposition Zrotation Xrotation Yrotation
  JOINT root
  {
    OFFSET -1.88076 89.672 7.2429
    CHANNELS 6 Xposition Yposition Zposition Zrotation Xrotation Yrotation
    JOINT Hips
    {
      OFFSET 0 0 0
      CHANNELS 6 Xposition Yposition Zposition Zrotation Xrotation Yrotation
      JOINT Spine
      {
        OFFSET -0.018718 -0.106522 -0.009742
        CHANNELS 6 Xposition Yposition Zposition Zrotation Xrotation Yrotation
        JOINT Spine1
        {
          OFFSET 5.29351 17.3803 3.7948
          CHANNELS 6 Xposition Yposition Zposition Zrotation Xrotation Yrotation
          JOINT Spine2
          {
            OFFSET 5.43159 16.7656 5.83003
            CHANNELS 6 Xposition Yposition Zposition Zrotation Xrotation Yrotation
            JOINT Neck
            {
              OFFSET 7.98206 14.5573 8.29933
              CHANNELS 6 Xposition Yposition Zposition Zrotation Xrotation Yrotation
              JOINT Head
              {
                OFFSET 5.15806 7.85472 6.68496
                CHANNELS 6 Xposition Yposition Zposition Zrotation Xrotation Yrotation
                End Site
                {
                  OFFSET 0 0 0
                }
              }
            }
            JOINT RightShoulder
            {
              OFFSET 6.13946 13.8236 11.3544
              CHANNELS 6 Xposition Yposition Zposition Zrotation Xrotation Yrotation
              JOINT RightArm
              {
                OFFSET -6.84125 -5.66371 13.4062
                CHANNELS 6 Xposition Yposition Zposition Zrotation Xrotation Yrotation
                JOINT RightForearm
                {
                  OFFSET 1.58335 -12.2354 26.6918
                  CHANNELS 6 Xposition Yposition Zposition Zrotation Xrotation Yrotation
                  JOINT RightHand
                  {
                    OFFSET 13.4686 -2.25176 20.8549
                    CHANNELS 6 Xposition Yposition Zposition Zrotation Xrotation Yrotation
                    End Site
                    {
                      OFFSET 0 0 0
                    }
                  }
                }
              }
            }
            JOINT LeftShoulder
            {
              OFFSET 9.8341 15.2777 5.25269
              CHANNELS 6 Xposition Yposition Zposition Zrotation Xrotation Yrotation
              JOINT LeftArm
              {
                OFFSET 7.35777 2.97698 -13.986
                CHANNELS 6 Xposition Yposition Zposition Zrotation Xrotation Yrotation
                JOINT LeftForearm
                {
                  OFFSET -7.69279 -14.0259 -24.673
                  CHANNELS 6 Xposition Yposition Zposition Zrotation Xrotation Yrotation
                  JOINT LeftHand
                  {
                    OFFSET 9.79607 -21.4658 8.04087
                    CHANNELS 6 Xposition Yposition Zposition Zrotation Xrotation Yrotation
                    End Site
                    {
                      OFFSET 0 0 0
                    }
                  }
                }
              }
            }
          }
        }
      }
      JOINT RightUpLeg
      {
        OFFSET -4.8494 0.340745 8.2296
        CHANNELS 6 Xposition Yposition Zposition Zrotation Xrotation Yrotation
        JOINT RightLeg
        {
          OFFSET -7.0693 -43.3897 9.72419
          CHANNELS 6 Xposition Yposition Zposition Zrotation Xrotation Yrotation
          JOINT RightFoot
          {
            OFFSET -18.2546 -36.3362 -6.48248
            CHANNELS 6 Xposition Yposition Zposition Zrotation Xrotation Yrotation
            JOINT RightToe
            {
              OFFSET 10.8157 -7.73918 12.1353
              CHANNELS 6 Xposition Yposition Zposition Zrotation Xrotation Yrotation
              End Site
              {
                OFFSET 0 0 0
              }
            }
          }
        }
      }
      JOINT LeftUpLeg
      {
        OFFSET 4.8494 -0.340766 -8.22959
        CHANNELS 6 Xposition Yposition Zposition Zrotation Xrotation Yrotation
        JOINT LeftLeg
        {
          OFFSET 22.4044 -38.9341 3.06195
          CHANNELS 6 Xposition Yposition Zposition Zrotation Xrotation Yrotation
          JOINT LeftFoot
          {
            OFFSET -3.26817 -41.0184 -1.54195
            CHANNELS 6 Xposition Yposition Zposition Zrotation Xrotation Yrotation
            JOINT LeftToe
            {
              OFFSET 16.2654 -7.71782 -0.107092
              CHANNELS 6 Xposition Yposition Zposition Zrotation Xrotation Yrotation
              End Site
              {
                OFFSET 0 0 0
              }
            }
          }
        }
      }
    }
  }
}
MOTION
Frames:	4
Frame Time:	0.0333333
0 0 0 0 0 -0 -3e-06 88.6121 -1e-06 0 0 -0 0 8e-06 0 2e-06 -4.53786e-13 -1.3e-05 -0.018718 -0.106522 -0.009742 1e-06 6.98132e-14 4e-06 5.29351 17.3803 3.7948 3.19029e-21 -1e-06 4e-06 5.43159 16.7656 5.83003 -0.00377663 -7e-06 9.99999e-07 7.98206 14.5573 8.29933 -4e-06 -8e-06 -7e-06 5.15806 7.85472 6.68496 1e-06 1e-06 -2e-06 6.13946 13.8236 11.3544 -1.2e-05 1.4e-05 1e-06 -6.84125 -5.66371 13.4062 3e-06 -3e-06 1.5708e-13 1.58335 -12.2354 26.6918 -2e-06 1e-06 -3e-06 13.4686 -2.25176 20.8549 1.2868e-18 -8e-06 -5e-06 9.8341 15.2777 5.25269 -1e-06 -1e-06 -5e-06 7.35777 2.97698 -13.986 2e-06 3.49066e-14 1e-06 -7.69279 -14.0259 -24.673 -1e-06 5e-06 3e-06 9.79607 -21.4658 8.04087 -8.15517e-19 6e-06 -6e-06 -4.8494 0.340745 8.2296 1e-06 -6e-06 -1e-05 -7.0693 -43.3897 9.72419 -3e-06 -3e-06 -7e-06 -18.2546 -36.3362 -6.48248 -3e-06 3e-06 1e-05 10.8157 -7.73918 12.1353 1.08059e-22 -7.58303e-22 1e-06 4.8494 -0.340766 -8.22959 -9e-06 7e-06 4e-06 22.4044 -38.9341 3.06195 1e-06 1.74533e-14 1e-06 -3.26817 -41.0184 -1.54195 1e-06 -1.74533e-14 -1e-06 16.2654 -7.71782 -0.107092 6e-06 -1.51661e-21 1.51661e-21 
1.90242 0 0.106853 0 0 -0 0.505021 88.5559 -0.72351 0.0678474 0.0903809 -0.25183 -4.44089e-16 8e-06 0 -0.048707 -0.0810923 0.0227241 -0.018718 -0.106522 -0.009742 -0.006711 -0.0307088 0.0323394 5.29351 17.3803 3.7948 0.005102 -0.029461 0.0781776 5.43159 16.7656 5.83003 -0.00376193 -0.0157154 0.0535731 7.98206 14.5573 8.29933 0.09661 -0.0274831 -0.0462857 5.15806 7.85472 6.68496 0.153033 -0.123274 -0.0545359 6.13946 13.8236 11.3544 0.0820555 0.205906 -0.0291229 -6.84125 -5.66371 13.4062 -0.0196375 -0.0757685 -0.404089 1.58335 -12.2354 26.6918 0.0811708 -0.0979355 0.164177 13.4686 -2.25176 20.8549 -0.100949 -0.0501023 0.0466578 9.8341 15.2777 5.25269 -0.021498 -0.00584797 -0.0693782 7.35777 2.97698 -13.986 0.331246 0.267538 -0.0337183 -7.69279 -14.0259 -24.673 -0.005161 0.0109557 0.00306399 9.79607 -21.4658 8.04087 -0.034446 -0.016098 0.00498532 -4.8494 0.340745 8.2296 -1.90194 -0.822826 0.330741 -7.0693 -43.3897 9.72419 0.749135 -0.883315 0.317365 -18.2546 -36.3362 -6.48248 0.164279 4.31207 -0.918775 10.8157 -7.73918 12.1353 6.80726 5.94488 -0.22194 4.8494 -0.340766 -8.22959 -0.592192 -0.738258 -0.180094 22.4044 -38.9341 3.06195 -2.0864 0.369176 0.0556662 -3.26817 -41.0184 -1.54195 2.75293 1.07778 0.435072 16.2654 -7.71782 -0.107092 0.0788249 -0.702412 0.0124933 
5.3234 0 0.284659 0 0 -0 1.37628 88.7092 -2.1538 -0.0147253 0.0417613 -0.549958 -1.77636e-15 8e-06 0 -0.105944 -0.17649 0.0492987 -0.018718 -0.106522 -0.009742 -0.028767 0.0189252 0.0514555 5.29351 17.3803 3.7948 -0.013742 0.0530964 0.139889 5.43159 16.7656 5.83003 -0.00384694 0.0435871 0.0924311 7.98206 14.5573 8.29933 0.225077 -0.0292441 -0.15067 5.15806 7.85472 6.68496 0.393116 -0.235798 -0.206306 6.13946 13.8236 11.3544 0.194542 0.6125 -0.241832 -6.84125 -5.66371 13.4062 -0.00500747 -0.395779 -0.924737 1.58335 -12.2354 26.6918 0.108057 -0.130222 0.218421 13.4686 -2.25176 20.8549 -0.151716 -0.130487 0.0227036 9.8341 15.2777 5.25269 -0.0689946 -0.0311571 -0.196748 7.35777 2.97698 -13.986 1.04891 -0.0874619 0.567814 -7.69279 -14.0259 -24.673 -0.286219 0.605413 0.171122 9.79607 -21.4658 8.04087 0.076409 0.0437403 0.0122087 -4.8494 0.340745 8.2296 -4.04522 -3.59942 3.42979 -7.0693 -43.3897 9.72419 0.158151 -0.187309 0.0662093 -18.2546 -36.3362 -6.48248 -2.18294 17.0125 -4.92602 10.8157 -7.73918 12.1353 18.6606 -3.11349 4.36037 4.8494 -0.340766 -8.22959 -2.42226 -2.19384 -0.281202 22.4044 -38.9341 3.06195 -4.39376 0.774688 0.132808 -3.26817 -41.0184 -1.54195 6.8982 4.83847 1.12486 16.2654 -7.71782 -0.107092 0.509134 -3.23502 0.0884784 
6.99652 0 0.24661 0 0 -0 1.74182 88.9444 -3.02842 -0.27133 -0.0533756 -0.876905 0 8e-06 -4.44089e-16 -0.0760892 -0.126724 0.0353927 -0.018718 -0.106522 -0.009742 -0.037325 0.0781751 0.0719499 5.29351 17.3803 3.7948 -0.025662 0.133706 0.151471 5.43159 16.7656 5.83003 -0.003944 0.0988183 0.0970438 7.98206 14.5573 8.29933 0.273054 -0.0156288 -0.154774 5.15806 7.85472 6.68496 0.484308 -0.248759 -0.199522 6.13946 13.8236 11.3544 0.191033 0.638416 -0.289406 -6.84125 -5.66371 13.4062 -0.00140586 -0.431544 -0.923146 1.58335 -12.2354 26.6918 0.0737668 -0.089026 0.149213 13.4686 -2.25176 20.8549 -0.106106 -0.124374 -0.0132504 9.8341 15.2777 5.25269 -0.0838038 -0.0792471 -0.149058 7.35777 2.97698 -13.986 1.12403 -0.492995 0.877332 -7.69279 -14.0259 -24.673 -0.415449 0.877213 0.24901 9.79607 -21.4658 8.04087 0.161891 0.0828835 0.135596 -4.8494 0.340745 8.2296 -4.24745 -5.41021 6.47768 -7.0693 -43.3897 9.72419 -1.21453 1.45278 -0.494061 -18.2546 -36.3362 -6.48248 -4.70824 25.8354 -7.63316 10.8157 -7.73918 12.1353 25.7917 -10.4589 9.07002 4.8494 -0.340766 -8.22959 -3.66895 -2.91736 -0.3624 22.4044 -38.9341 3.06195 -4.525 0.797651 0.137689 -3.26817 -41.0184 -1.54195 8.43049 6.86587 1.56437 16.2654 -7.71782 -0.107092 0.597078 -4.49032 0.129408 
